<mxfile host="app.diagrams.net" modified="2024-05-25T20:53:31.347Z" agent="Mozilla/5.0 (X11; Linux x86_64; rv:126.0) Gecko/20100101 Firefox/126.0" version="24.4.7" etag="CEvqxSK5KuuRfHWs6BiG" type="github">
  <diagram name="Page-1" id="01UJ_s2FN4EnvH9sL_--">
    <mxGraphModel>
      <root>
        <mxCell id="0" />
        <mxCell id="1" parent="0" />
      </root>
    </mxGraphModel>
  </diagram>
</mxfile>
